<svg id="Capa_10" data-name="Capa 10" xmlns="http://www.w3.org/2000/svg" viewBox="0 0 391 535.2"><defs><style>.cls-1{fill:#d21f3c;}.cls-2{fill:#fff;}</style></defs><title>ml-logo</title><path class="cls-1" d="M520.42,57.13A240.46,240.46,0,0,0,399.5,24h-1A242,242,0,0,0,277.08,57.13,245.84,245.84,0,0,0,207,119.27V409a453.65,453.65,0,0,0,72.69,77.67,445.63,445.63,0,0,0,119.19,71.71,444.71,444.71,0,0,0,118.88-71.71A449,449,0,0,0,590,409V119.27A242.55,242.55,0,0,0,520.42,57.13ZM544,407.89c-13,14.81-30.54,33.13-54.88,50.54-33.29,23.82-66,37.57-90,46.57h-0.18c-24.08-9-57.24-22.75-90.53-46.57A325.33,325.33,0,0,1,253,408V119l0.25,0.66c10-8.2,27.07-20.09,53.36-30C344.48,75.35,381,74,398.62,74h0.76c17.62,0,53.89,1.35,91.76,15.64C517.43,99.57,534,111.19,544,119.39v288.5Z" transform="translate(-203 -23.18)"/><path class="cls-2" d="M302,182.5c-10.14.79-19,1.64-33.58,0.17a241.69,241.69,0,0,1-32.75-6L265.33,190c13.89,0.5,25.89.5,39.78,1Z" transform="translate(-203 -23.18)"/><path class="cls-2" d="M496.3,182.5c10.14,0.79,19,1.64,33.58.17a241.69,241.69,0,0,0,32.75-6L533,190c-13.89.5-25.89,0.5-39.78,1Z" transform="translate(-203 -23.18)"/><path class="cls-2" d="M397.75,364.67l27.67-.42A79.93,79.93,0,0,1,445.25,322q8.9,43.5,17.82,87l-64.48,48.5L334,408.94q8.9-43.5,17.8-87a79.71,79.71,0,0,1,19.74,42.27l27.54,0.42" transform="translate(-203 -23.18)"/><path class="cls-2" d="M398,352H377.69c-4-10-10.35-46.94-20.51-60.92C348.58,279.25,339,270,332,263.5V237c-10-14.09-24.88-58.85-31.92-81-18-7.94-37.31-15.39-55.27-23.33Q236.1,119.83,227.4,107a203.75,203.75,0,0,0,32.28,21.5c13.67,7.33,36.87,15,36.84,14.85-0.22-1.36-5.94-36.46-6.33-41.1l-63.25-35.5L203,23.18A303.2,303.2,0,0,0,244.94,62.5a303.29,303.29,0,0,0,55.4,34,181.59,181.59,0,0,0,18.1,65.61c9.37,18.95,20.68,33.87,29.67,42.87h1.15L360,182.13l4.79,6.27L387.67,168l0.17,4.65L398,156l12.8,26,8.2-7.84L433.5,191l-1.83-9L448,205l0.92-.27A178.83,178.83,0,0,0,496.65,96.52a303.29,303.29,0,0,0,55.4-34A303.18,303.18,0,0,0,594,23.18L570.05,66.75l-63.25,35.5c-0.39,4.64-6.11,39.74-6.34,41.1,0,0.17,23.16-7.52,36.82-14.85A203.32,203.32,0,0,0,569.53,107c-5.81,8.56-11.66,17.11-17.47,25.67-18,7.94-37.69,15.39-55.64,23.33-7,22.15-22.42,66.91-32.42,81v26.5a193.15,193.15,0,0,0-24.68,27.58c-10.16,14-16.06,50.92-20,60.92H398Z" transform="translate(-203 -23.18)"/></svg>